REM DIRINDEX 1\2\6,1\2\7,1\2\8,1\2\9,1\3\10,1\3\11,1\4\12,1\4\13,1\4\14,1\5\15,1\5\16,1\5\17
REM DIRNAME folder01,folder02,folder03,folder04,folder05,folder06,folder07,folder08,folder09,folder10,folder11,folder12,folder13,folder14,folder15,folder16,folder17
TITLE ""
FILE "1900_2_sec11_1049_1066.mp3" MP3
  TRACK 01 AUDIO
    TITLE "0:"
    INDEX 01 00:00:00
  TRACK 02 AUDIO
    TITLE "13:cjc020_4227"
    INDEX 01 00:00:19
  TRACK 03 AUDIO
    TITLE "0:"
    INDEX 01 00:01:22
  TRACK 04 AUDIO
    TITLE "14:cjc020_4228"
    INDEX 01 00:01:24
  TRACK 05 AUDIO
    TITLE "0:"
    INDEX 01 00:04:05
  TRACK 06 AUDIO
    TITLE "13:cjc020_4229"
    INDEX 01 00:04:58
  TRACK 07 AUDIO
    TITLE "0:"
    INDEX 01 00:05:67
  TRACK 08 AUDIO
    TITLE "14:cjc020_4230"
    INDEX 01 00:05:71
  TRACK 09 AUDIO
    TITLE "0:"
    INDEX 01 00:08:26
  TRACK 10 AUDIO
    TITLE "13:cjc020_4231"
    INDEX 01 00:09:08
  TRACK 11 AUDIO
    TITLE "0:"
    INDEX 01 00:10:27
  TRACK 12 AUDIO
    TITLE "14:cjc020_4232"
    INDEX 01 00:10:31
  TRACK 13 AUDIO
    TITLE "0:"
    INDEX 01 00:11:21
  TRACK 14 AUDIO
    TITLE "13:cjc020_4233"
    INDEX 01 00:12:01
  TRACK 15 AUDIO
    TITLE "0:"
    INDEX 01 00:13:12
  TRACK 16 AUDIO
    TITLE "14:cjc020_4234"
    INDEX 01 00:13:16
  TRACK 17 AUDIO
    TITLE "0:"
    INDEX 01 00:16:48
  TRACK 18 AUDIO
    TITLE "13:cjc020_4235"
    INDEX 01 00:17:27
  TRACK 19 AUDIO
    TITLE "0:"
    INDEX 01 00:18:25
  TRACK 20 AUDIO
    TITLE "14:cjc020_4236"
    INDEX 01 00:18:31
  TRACK 21 AUDIO
    TITLE "0:"
    INDEX 01 00:22:56
  TRACK 22 AUDIO
    TITLE "13:cjc020_4237"
    INDEX 01 00:23:38
  TRACK 23 AUDIO
    TITLE "0:"
    INDEX 01 00:24:37
  TRACK 24 AUDIO
    TITLE "14:cjc020_4238"
    INDEX 01 00:24:43
  TRACK 25 AUDIO
    TITLE "0:"
    INDEX 01 00:30:69
  TRACK 26 AUDIO
    TITLE "13:cjc020_4239"
    INDEX 01 00:31:49
  TRACK 27 AUDIO
    TITLE "0:"
    INDEX 01 00:32:48
  TRACK 28 AUDIO
    TITLE "14:cjc020_4240"
    INDEX 01 00:32:54
  TRACK 29 AUDIO
    TITLE "0:"
    INDEX 01 00:36:27
  TRACK 30 AUDIO
    TITLE "13:cjc020_4241"
    INDEX 01 00:37:10
  TRACK 31 AUDIO
    TITLE "0:"
    INDEX 01 00:38:18
  TRACK 32 AUDIO
    TITLE "14:cjc020_4242"
    INDEX 01 00:38:24
  TRACK 33 AUDIO
    TITLE "0:"
    INDEX 01 00:40:19
  TRACK 34 AUDIO
    TITLE "13:cjc020_4243"
    INDEX 01 00:41:02
  TRACK 35 AUDIO
    TITLE "0:"
    INDEX 01 00:42:02
  TRACK 36 AUDIO
    TITLE "14:cjc020_4244"
    INDEX 01 00:42:10
  TRACK 37 AUDIO
    TITLE "0:"
    INDEX 01 00:45:49
  TRACK 38 AUDIO
    TITLE "13:cjc020_4245"
    INDEX 01 00:46:29
  TRACK 39 AUDIO
    TITLE "0:"
    INDEX 01 00:47:28
  TRACK 40 AUDIO
    TITLE "14:cjc020_4246"
    INDEX 01 00:47:32
  TRACK 41 AUDIO
    TITLE "0:"
    INDEX 01 00:50:35
  TRACK 42 AUDIO
    TITLE "13:cjc020_4247"
    INDEX 01 00:51:18
  TRACK 43 AUDIO
    TITLE "0:"
    INDEX 01 00:52:24
  TRACK 44 AUDIO
    TITLE "14:cjc020_4248"
    INDEX 01 00:52:28
  TRACK 45 AUDIO
    TITLE "0:"
    INDEX 01 00:55:22
  TRACK 46 AUDIO
    TITLE "13:cjc020_4249"
    INDEX 01 00:56:00
  TRACK 47 AUDIO
    TITLE "0:"
    INDEX 01 00:56:72
  TRACK 48 AUDIO
    TITLE "14:cjc020_4250"
    INDEX 01 00:56:74
  TRACK 49 AUDIO
    TITLE "0:"
    INDEX 01 00:59:30
  TRACK 50 AUDIO
    TITLE "13:cjc020_4251"
    INDEX 01 01:00:12
  TRACK 51 AUDIO
    TITLE "0:"
    INDEX 01 01:01:17
  TRACK 52 AUDIO
    TITLE "14:cjc020_4252"
    INDEX 01 01:01:19
  TRACK 53 AUDIO
    TITLE "0:"
    INDEX 01 01:04:41
  TRACK 54 AUDIO
    TITLE "13:cjc020_4253"
    INDEX 01 01:05:22
  TRACK 55 AUDIO
    TITLE "0:"
    INDEX 01 01:06:43
  TRACK 56 AUDIO
    TITLE "14:cjc020_4254"
    INDEX 01 01:06:45
  TRACK 57 AUDIO
    TITLE "0:"
    INDEX 01 01:07:57
  TRACK 58 AUDIO
    TITLE "13:cjc020_4255"
    INDEX 01 01:08:38
  TRACK 59 AUDIO
    TITLE "0:"
    INDEX 01 01:09:34
  TRACK 60 AUDIO
    TITLE "14:cjc020_4256"
    INDEX 01 01:09:40
  TRACK 61 AUDIO
    TITLE "0:"
    INDEX 01 01:11:51
  TRACK 62 AUDIO
    TITLE "13:cjc020_4257"
    INDEX 01 01:12:28
  TRACK 63 AUDIO
    TITLE "0:"
    INDEX 01 01:13:47
  TRACK 64 AUDIO
    TITLE "14:cjc020_4258"
    INDEX 01 01:13:49
  TRACK 65 AUDIO
    TITLE "0:"
    INDEX 01 01:14:55
  TRACK 66 AUDIO
    TITLE "13:cjc020_4259"
    INDEX 01 01:15:39
  TRACK 67 AUDIO
    TITLE "0:"
    INDEX 01 01:16:40
  TRACK 68 AUDIO
    TITLE "14:cjc020_4260"
    INDEX 01 01:16:46
  TRACK 69 AUDIO
    TITLE "0:"
    INDEX 01 01:19:05
  TRACK 70 AUDIO
    TITLE "13:cjc020_4261"
    INDEX 01 01:19:62
  TRACK 71 AUDIO
    TITLE "0:"
    INDEX 01 01:20:65
  TRACK 72 AUDIO
    TITLE "14:cjc020_4262"
    INDEX 01 01:20:71
  TRACK 73 AUDIO
    TITLE "0:"
    INDEX 01 01:22:23
